<?xml version="1.0" encoding="UTF-8"?>
<svg id="Livello_1" xmlns="http://www.w3.org/2000/svg" version="1.1" viewBox="0 0 5000 4000">
  <!-- Generator: Adobe Illustrator 30.2.1, SVG Export Plug-In . SVG Version: 2.1.1 Build 1)  -->
  <defs>
    <style>
      .st0 {
        font-size: 473.47px;
      }

      .st0, .st1, .st2 {
        fill: #fff;
      }

      .st3 {
        letter-spacing: 0em;
      }

      .st3, .st4 {
        font-family: Roboto-Bold, Roboto;
        font-weight: 700;
      }

      .st5 {
        font-family: Roboto-Light, Roboto;
        font-weight: 300;
      }

      .st1 {
        display: none;
      }

      .st6 {
        font-size: 400px;
      }

      .st7 {
        fill: #ff1d95;
      }

      .st8 {
        fill: #4702f4;
      }
    </style>
  </defs>
  <rect class="st8" x="767.67" y="1232" width="1566" height="1566" rx="297.92" ry="297.92"/>
  <path class="st1" d="M2114.76,1357.06v126h-109c-31.48,0-57,25.52-57,57v240c0,19.91-3.18,39.07-9.05,57-7.68,23.45-19.96,44.8-35.78,63,15.82,18.2,28.1,39.55,35.78,63,5.87,17.93,9.05,37.09,9.05,57v240c0,31.48,25.52,57,57,57h109v126h-109c-19.91,0-39.07-3.18-57-9.05-23.45-7.68-44.8-19.96-63-35.78-38.6-33.55-63-83.01-63-138.17v-240c0-31.48-25.52-57-57-57h-65v-126h65c31.48,0,57-25.52,57-57v-240c0-45.92,16.91-87.88,44.84-120.01,21.45-24.67,49.38-43.53,81.16-53.94,17.93-5.87,37.09-9.05,57-9.05h109Z"/>
  <path class="st1" d="M2594.23,1357.06v126h109c31.48,0,57,25.52,57,57v240c0,19.91,3.18,39.07,9.05,57,7.68,23.45,19.96,44.8,35.78,63-15.82,18.2-28.1,39.55-35.78,63-5.87,17.93-9.05,37.09-9.05,57v240c0,31.48-25.52,57-57,57h-109v126h109c19.91,0,39.07-3.18,57-9.05,23.45-7.68,44.8-19.96,63-35.78,38.6-33.55,63-83.01,63-138.17v-240c0-31.48,25.52-57,57-57h65v-126h-65c-31.48,0-57-25.52-57-57v-240c0-45.92-16.91-87.88-44.84-120.01-21.45-24.67-49.38-43.53-81.16-53.94-17.93-5.87-37.09-9.05-57-9.05h-109Z"/>
  <text class="st0" transform="translate(2557.38 2297.31)"><tspan class="st4" x="0" y="0">Bit</tspan><tspan class="st5" x="587.68" y="0">by</tspan><tspan class="st3" x="1075.48" y="0">bit</tspan></text>
  <g>
    <path class="st7" d="M1479.47,1792.19l-193.16,193.16-193.17-193.17c-50.45-50.45-50.45-132.25,0-182.71,24.66-24.66,56.81-37.27,89.13-37.82,33.8-.58,67.79,12.03,93.58,37.82,3.77,3.77,7.26,7.72,10.46,11.81,3.2-4.1,6.69-8.04,10.46-11.81,25.79-25.8,59.78-38.4,93.58-37.82,32.32.55,64.47,13.16,89.13,37.82,50.45,50.45,50.45,132.26,0,182.71Z"/>
    <circle class="st2" cx="1820.92" cy="2313.29" r="186.43"/>
    <rect class="st2" x="1501.67" y="1476.84" width="127.84" height="1118.57" transform="translate(1546.04 -532.24) rotate(37.12)"/>
  </g>
  <g>
    <path class="st7" d="M1609.35,4611.27l-163.19,163.19-163.19-163.19c-42.62-42.62-42.62-111.73,0-154.36,20.83-20.83,47.99-31.49,75.3-31.95,28.56-.49,57.27,10.16,79.06,31.95,3.19,3.19,6.14,6.52,8.84,9.98,2.7-3.46,5.65-6.79,8.83-9.98,21.79-21.79,50.5-32.44,79.06-31.96,27.3.47,54.46,11.12,75.3,31.95,42.62,42.62,42.62,111.74,0,154.36Z"/>
    <circle class="st8" cx="1897.82" cy="5051.5" r="157.5"/>
    <rect class="st8" x="1628.11" y="4344.84" width="108" height="945" transform="translate(3248.1 -38.99) rotate(37.12)"/>
  </g>
  <text class="st6" transform="translate(2613 4949)"><tspan class="st4" x="0" y="0">Bit</tspan><tspan class="st5" x="496.48" y="0">by</tspan><tspan class="st4" x="908.59" y="0">bit</tspan></text>
</svg>